<svg width="31" height="30" viewBox="0 0 31 30" fill="none" xmlns="http://www.w3.org/2000/svg">
<path d="M0.853394 14.8479C0.853394 6.7589 7.41088 0.201416 15.4999 0.201416C23.5889 0.201416 30.1464 6.7589 30.1464 14.8479C30.1464 22.937 23.5889 29.4944 15.4999 29.4944C7.41088 29.4944 0.853394 22.937 0.853394 14.8479Z" fill="white"/>
<path d="M15.501 10.6515C13.095 10.6515 11.1542 12.5928 11.1542 14.9993C11.1542 17.4058 13.095 19.3471 15.501 19.3471C17.907 19.3471 19.8478 17.4058 19.8478 14.9993C19.8478 12.5928 17.907 10.6515 15.501 10.6515ZM15.501 17.6816C14.0257 17.6816 12.8193 16.4786 12.8193 14.9993C12.8193 13.5199 14.022 12.317 15.501 12.317C16.98 12.317 18.1827 13.5199 18.1827 14.9993C18.1827 16.4786 16.9764 17.6816 15.501 17.6816ZM19.9346 11.6459C20.5314 11.6459 21.0155 11.1657 21.0155 10.5647C21.0155 9.96765 20.5316 9.48353 19.9346 9.48353C19.3376 9.48353 18.8537 9.96765 18.8537 10.5647C18.8537 11.1615 19.3337 11.6459 19.9346 11.6459ZM23.8365 11.5687C23.7729 10.2266 23.4654 9.02253 22.4689 8.02961C21.4762 7.03678 20.2725 6.7293 18.931 6.66198C17.5559 6.58396 13.4427 6.58395 12.0675 6.66198C10.7293 6.72558 9.52572 7.03314 8.52939 8.0259C7.53279 9.01893 7.22914 10.2231 7.16185 11.5648C7.08384 12.9402 7.08384 17.0544 7.16184 18.4299C7.22543 19.7719 7.5329 20.976 8.52939 21.969C9.5257 22.9617 10.7256 23.2692 12.0673 23.3366C13.4423 23.4146 17.5556 23.4146 18.9308 23.3366C20.2726 23.273 21.4764 22.9654 22.4692 21.9687C23.4617 20.9758 23.7692 19.7719 23.8365 18.43C23.9145 17.0547 23.9145 12.9442 23.8365 11.5687ZM21.8959 19.865C21.6157 20.5693 21.0737 21.1116 20.3656 21.3956C19.8351 21.6061 18.9279 21.6898 17.9899 21.719C17.3218 21.7398 16.6479 21.733 16.0958 21.7274C15.8754 21.7252 15.6744 21.7231 15.501 21.7231C15.331 21.7231 15.1343 21.725 14.9187 21.7271C14.3641 21.7324 13.6843 21.7389 13.0108 21.7176C12.0723 21.6879 11.1651 21.6042 10.6363 21.3956C9.93224 21.1153 9.39008 20.5732 9.10607 19.8649C8.8957 19.3342 8.81204 18.4269 8.7828 17.4887C8.76197 16.8205 8.7688 16.1464 8.7744 15.5942C8.77663 15.3738 8.77867 15.1727 8.77867 14.9993C8.77867 14.8292 8.77678 14.6325 8.77471 14.4169C8.76939 13.8621 8.76287 13.1821 8.78419 12.5085C8.81389 11.5697 8.89756 10.6623 9.10615 10.1334C9.38638 9.42921 9.92836 8.88696 10.6364 8.6029C11.167 8.39248 12.0741 8.30879 13.0122 8.27955C13.6802 8.25872 14.3542 8.26555 14.9062 8.27115C15.1266 8.27338 15.3276 8.27542 15.501 8.27542C15.671 8.27542 15.8677 8.27353 16.0833 8.27146C16.6379 8.26614 17.3178 8.25962 17.9912 8.28094C18.9298 8.31065 19.8369 8.39433 20.3657 8.60296C21.0697 8.88322 21.6119 9.42526 21.8959 10.1334C22.1063 10.6641 22.19 11.5715 22.2192 12.5099C22.24 13.178 22.2332 13.8522 22.2276 14.4043C22.2254 14.6248 22.2233 14.8258 22.2233 14.9993C22.2233 15.1727 22.2254 15.3738 22.2276 15.5943C22.2332 16.1468 22.24 16.8215 22.2192 17.4901C22.19 18.429 22.1063 19.3363 21.8959 19.865Z" fill="#093C55" stroke="#093C55" stroke-width="0.174913"/>
</svg>
