<svg width="29" height="30" viewBox="0 0 29 30" fill="none" xmlns="http://www.w3.org/2000/svg">
<path d="M0.139404 14.6317C0.139404 6.66209 6.60008 0.201416 14.5697 0.201416C22.5393 0.201416 29 6.66209 29 14.6317C29 22.6013 22.5393 29.062 14.5697 29.062C6.60008 29.062 0.139404 22.6013 0.139404 14.6317Z" fill="white"/>
<path d="M10.6858 21.2305H7.60276V11.5233H10.6858V21.2305ZM9.14262 10.1992C8.15697 10.1992 7.35718 9.40081 7.35718 8.43691C7.35718 7.97383 7.54529 7.52971 7.88012 7.20226C8.21496 6.87482 8.66909 6.69086 9.14262 6.69086C9.61614 6.69086 10.0703 6.87482 10.4051 7.20226C10.7399 7.52971 10.9281 7.97383 10.9281 8.43691C10.9281 9.40081 10.1283 10.1992 9.14262 10.1992ZM22.2215 21.2305H19.1451V16.5051C19.1451 15.3789 19.1218 13.9347 17.5421 13.9347C15.9392 13.9347 15.6936 15.1582 15.6936 16.424V21.2305H12.6139V11.5233H15.5709V12.8475H15.614C16.0255 12.0848 17.0311 11.2799 18.5311 11.2799C21.6506 11.2799 22.2248 13.2889 22.2248 15.8982V21.2305H22.2215Z" fill="#093C55"/>
</svg>
