<svg width="36" height="36" viewBox="0 0 36 36" fill="none" xmlns="http://www.w3.org/2000/svg">
<g clip-path="url(#clip0_2_210)">
<path d="M18.75 31.5H9C8.20435 31.5 7.44129 31.1839 6.87868 30.6213C6.31607 30.0587 6 29.2956 6 28.5V10.5C6 9.70435 6.31607 8.94129 6.87868 8.37868C7.44129 7.81607 8.20435 7.5 9 7.5H27C27.7956 7.5 28.5587 7.81607 29.1213 8.37868C29.6839 8.94129 30 9.70435 30 10.5V15" stroke="#093C55" stroke-width="2" stroke-linecap="round" stroke-linejoin="round"/>
<path d="M24 4.5V10.5" stroke="#093C55" stroke-width="2" stroke-linecap="round" stroke-linejoin="round"/>
<path d="M12 4.5V10.5" stroke="#093C55" stroke-width="2" stroke-linecap="round" stroke-linejoin="round"/>
<path d="M6 16.5H24" stroke="#093C55" stroke-width="2" stroke-linecap="round" stroke-linejoin="round"/>
<path d="M30 21L33 24H28.5" stroke="#093C55" stroke-width="2" stroke-linecap="round" stroke-linejoin="round"/>
<path d="M30 27L33 24" stroke="#093C55" stroke-width="2" stroke-linecap="round" stroke-linejoin="round"/>
<path d="M28.5 24C27.7705 24 27.052 24.1773 26.4063 24.5167C25.7606 24.856 25.2071 25.3473 24.7934 25.9481C24.3798 26.5489 24.1184 27.2412 24.0317 27.9655C23.9451 28.6898 24.0358 29.4243 24.2961 30.1057C24.5564 30.7871 24.9784 31.3951 25.5259 31.8772C26.0733 32.3593 26.7297 32.701 27.4386 32.8731C28.1475 33.0451 28.8875 33.0422 29.595 32.8647C30.3026 32.6872 30.9563 32.3403 31.5 31.854" stroke="#093C55" stroke-width="2" stroke-linecap="round" stroke-linejoin="round"/>
</g>
<defs>
<clipPath id="clip0_2_210">
<rect width="36" height="36" fill="white"/>
</clipPath>
</defs>
</svg>
