<svg width="36" height="36" viewBox="0 0 36 36" fill="none" xmlns="http://www.w3.org/2000/svg">
<g clip-path="url(#clip0_2_201)">
<path d="M6 19.5C8.67464 19.8179 11.1646 21.0263 13.0691 22.9309C14.9737 24.8354 16.1821 27.3254 16.5 30C17.8259 29.2356 18.9349 28.1457 19.7223 26.8334C20.5097 25.5211 20.9495 24.0296 21 22.5C23.5187 21.614 25.718 20.001 27.32 17.865C28.922 15.729 29.8546 13.166 30 10.5C30 9.30653 29.5259 8.16193 28.682 7.31802C27.8381 6.47411 26.6935 6 25.5 6C22.834 6.14536 20.271 7.078 18.135 8.67998C15.999 10.282 14.386 12.4813 13.5 15C11.9704 15.0505 10.4789 15.4903 9.1666 16.2777C7.85426 17.0651 6.76439 18.1741 6 19.5Z" stroke="#093C55" stroke-width="2" stroke-linecap="round" stroke-linejoin="round"/>
<path d="M10.5002 21C8.93908 21.8814 7.67671 23.2089 6.87497 24.8124C6.07322 26.4159 5.76863 28.2223 6.00023 30C7.77797 30.2316 9.58437 29.927 11.1879 29.1253C12.7914 28.3235 14.1189 27.0612 15.0002 25.5" stroke="#093C55" stroke-width="2" stroke-linecap="round" stroke-linejoin="round"/>
<path d="M21 13.5C21 13.8978 21.158 14.2794 21.4393 14.5607C21.7206 14.842 22.1022 15 22.5 15C22.8978 15 23.2794 14.842 23.5607 14.5607C23.842 14.2794 24 13.8978 24 13.5C24 13.1022 23.842 12.7206 23.5607 12.4393C23.2794 12.158 22.8978 12 22.5 12C22.1022 12 21.7206 12.158 21.4393 12.4393C21.158 12.7206 21 13.1022 21 13.5Z" stroke="#093C55" stroke-width="2" stroke-linecap="round" stroke-linejoin="round"/>
</g>
<defs>
<clipPath id="clip0_2_201">
<rect width="36" height="36" fill="white"/>
</clipPath>
</defs>
</svg>
